<svg xmlns="http://www.w3.org/2000/svg" viewBox="0 0 42.92 31.01"><g id="Livello_2" data-name="Livello 2"><g id="Livello_3" data-name="Livello 3"><path d="M21.44,1,32.07,19.36a1.92,1.92,0,0,1,0,1.91l-4,6.88a1.91,1.91,0,0,1-3.3,0L10.19,2.86A1.91,1.91,0,0,1,11.84,0h8A1.9,1.9,0,0,1,21.44,1Z"/><path d="M42.66,2.92,39.24,8.85a2,2,0,0,1-3.38,0L32.45,2.92A1.94,1.94,0,0,1,34.13,0H41A2,2,0,0,1,42.66,2.92Z"/><path d="M7.33,25.12h0a3.93,3.93,0,0,0-6.8,0h0A3.93,3.93,0,0,0,3.93,31h0A3.93,3.93,0,0,0,7.33,25.12Z"/></g></g></svg>